<mxfile host="app.diagrams.net" modified="2023-04-25T19:53:06.890Z" agent="Mozilla/5.0 (Windows NT 10.0; Win64; x64) AppleWebKit/537.36 (KHTML, like Gecko) Chrome/112.0.0.0 Safari/537.36" etag="3yE30PSMbNAVSvAi2Wo_" version="21.2.1" type="device">
  <diagram name="Page-1" id="Gt7uBxZqojVFZ811XCLX">
    <mxGraphModel dx="714" dy="526" grid="1" gridSize="10" guides="1" tooltips="1" connect="1" arrows="1" fold="1" page="1" pageScale="1" pageWidth="827" pageHeight="1169" math="0" shadow="0">
      <root>
        <mxCell id="0" />
        <mxCell id="1" parent="0" />
        <mxCell id="qPvH_RTHD7adrXWYc7Io-13" value="NP-Hard&lt;br style=&quot;font-size: 10px;&quot;&gt;&lt;br style=&quot;font-size: 10px;&quot;&gt;&lt;br style=&quot;font-size: 10px;&quot;&gt;&lt;br style=&quot;font-size: 10px;&quot;&gt;" style="ellipse;whiteSpace=wrap;html=1;fillColor=none;fontSize=10;" vertex="1" parent="1">
          <mxGeometry x="410" y="120" width="120" height="170" as="geometry" />
        </mxCell>
        <mxCell id="qPvH_RTHD7adrXWYc7Io-8" value="NP-Hard" style="ellipse;whiteSpace=wrap;html=1;fillColor=none;fontSize=10;" vertex="1" parent="1">
          <mxGeometry x="230" y="120" width="120" height="110" as="geometry" />
        </mxCell>
        <mxCell id="qPvH_RTHD7adrXWYc7Io-5" value="" style="endArrow=none;html=1;rounded=0;" edge="1" parent="1">
          <mxGeometry width="50" height="50" relative="1" as="geometry">
            <mxPoint x="380" y="320" as="sourcePoint" />
            <mxPoint x="380" y="80" as="targetPoint" />
          </mxGeometry>
        </mxCell>
        <mxCell id="qPvH_RTHD7adrXWYc7Io-6" value="P=NP" style="ellipse;whiteSpace=wrap;html=1;fillColor=none;fontSize=10;" vertex="1" parent="1">
          <mxGeometry x="427.5" y="200" width="85" height="90" as="geometry" />
        </mxCell>
        <mxCell id="qPvH_RTHD7adrXWYc7Io-14" value="NP-intermediate&lt;br&gt;&lt;br&gt;" style="ellipse;whiteSpace=wrap;html=1;fillColor=none;fontSize=10;" vertex="1" parent="1">
          <mxGeometry x="247.5" y="200" width="85" height="90" as="geometry" />
        </mxCell>
        <mxCell id="qPvH_RTHD7adrXWYc7Io-15" value="P" style="ellipse;whiteSpace=wrap;html=1;fillColor=none;fontSize=10;" vertex="1" parent="1">
          <mxGeometry x="260" y="250" width="60" height="40" as="geometry" />
        </mxCell>
        <mxCell id="qPvH_RTHD7adrXWYc7Io-16" value="NP-Complete" style="text;html=1;strokeColor=none;fillColor=none;align=center;verticalAlign=middle;whiteSpace=wrap;rounded=0;fontSize=10;" vertex="1" parent="1">
          <mxGeometry x="260" y="200" width="60" height="30" as="geometry" />
        </mxCell>
        <mxCell id="qPvH_RTHD7adrXWYc7Io-17" value="If P=NP" style="text;html=1;strokeColor=none;fillColor=none;align=center;verticalAlign=middle;whiteSpace=wrap;rounded=0;fontSize=10;" vertex="1" parent="1">
          <mxGeometry x="440" y="290" width="60" height="30" as="geometry" />
        </mxCell>
        <mxCell id="qPvH_RTHD7adrXWYc7Io-18" value="&lt;span style=&quot;color: rgb(0, 0, 0); font-family: Helvetica; font-size: 10px; font-style: normal; font-variant-ligatures: normal; font-variant-caps: normal; font-weight: 400; letter-spacing: normal; orphans: 2; text-indent: 0px; text-transform: none; widows: 2; word-spacing: 0px; -webkit-text-stroke-width: 0px; background-color: rgb(251, 251, 251); text-decoration-thickness: initial; text-decoration-style: initial; text-decoration-color: initial; float: none; display: inline !important;&quot;&gt;If Pâ‰ NP&lt;/span&gt;" style="text;whiteSpace=wrap;html=1;align=center;" vertex="1" parent="1">
          <mxGeometry x="255" y="290" width="70" height="40" as="geometry" />
        </mxCell>
      </root>
    </mxGraphModel>
  </diagram>
</mxfile>
